<svg xmlns="http://www.w3.org/2000/svg" width="49.333" height="49.333" viewBox="0 0 49.333 49.333"><defs><style>.a{fill:#fff;}</style></defs><g transform="translate(-0.001)"><g transform="translate(0.001)"><path class="a" d="M112.092,8.152v3.334l9.947-5.743L112.092,0V3.362a20.582,20.582,0,0,0-15.318,7.579l3.706,3.029A15.813,15.813,0,0,1,112.092,8.152Z" transform="translate(-88.492)"/><path class="a" d="M423.84,112.09a20.582,20.582,0,0,0-7.579-15.318l-3.029,3.706a15.813,15.813,0,0,1,5.818,11.612h-3.333l5.743,9.947,5.743-9.947Z" transform="translate(-377.868 -88.49)"/><path class="a" d="M194.426,419.048v-3.333l-9.947,5.743,9.947,5.743v-3.362a20.581,20.581,0,0,0,15.318-7.579l-3.706-3.029A15.814,15.814,0,0,1,194.426,419.048Z" transform="translate(-168.692 -377.866)"/><path class="a" d="M8.153,194.424h3.334l-5.742-9.947L0,194.424H3.363a20.581,20.581,0,0,0,7.579,15.318l3.029-3.706A15.813,15.813,0,0,1,8.153,194.424Z" transform="translate(-0.001 -168.69)"/></g></g></svg>