<svg xmlns="http://www.w3.org/2000/svg" width="21.729" height="20.349" viewBox="0 0 21.729 20.349"><defs><style>.a{fill:#7b828d;}</style></defs><g transform="translate(-4 -36)"><g transform="translate(4 36)"><path class="a" d="M4,144v14.486a1.207,1.207,0,0,0,1.207,1.207H24.522a1.207,1.207,0,0,0,1.207-1.207V144Zm2.759,2.414a.863.863,0,0,1,.862-.862H12.45a.863.863,0,0,1,.862.862v1.38a.863.863,0,0,1-.862.862H7.621a.863.863,0,0,1-.862-.862Zm12.072,10.692a1.209,1.209,0,0,1-1.207,1.207H12.105a1.209,1.209,0,0,1-1.207-1.207v-.862a1.209,1.209,0,0,1,1.207-1.207h5.518a1.209,1.209,0,0,1,1.207,1.207Zm.69-4.656a.863.863,0,0,1-.862.862H7.621a.863.863,0,0,1-.862-.862v-1.38a.863.863,0,0,1,.862-.862H18.658a.863.863,0,0,1,.862.862Zm3.449-4.656a.863.863,0,0,1-.862.862h-6.9a.863.863,0,0,1-.862-.862v-1.38a.863.863,0,0,1,.862-.862h6.9a.863.863,0,0,1,.862.862Z" transform="translate(-4 -139.344)"/><path class="a" d="M24.522,36H5.207A1.207,1.207,0,0,0,4,37.207v2.759H25.729V37.207A1.207,1.207,0,0,0,24.522,36Zm-5,2.587a.517.517,0,1,1,.517-.517A.517.517,0,0,1,19.521,38.587Zm2.069,0a.517.517,0,1,1,.517-.517A.517.517,0,0,1,21.59,38.587Zm2.069,0a.517.517,0,1,1,.517-.517A.517.517,0,0,1,23.659,38.587Z" transform="translate(-4 -36)"/></g></g></svg>