<svg xmlns="http://www.w3.org/2000/svg" width="28.84" height="19" viewBox="0 0 28.84 19"><defs><style>.a{fill:#ee405e;stroke:#000;stroke-linecap:round;stroke-linejoin:round;stroke-width:0;}</style></defs><path class="a" d="M28.64,73a.586.586,0,0,0-.514-.355H25.491a.586.586,0,0,0-.514.355,4.268,4.268,0,0,0-.151.534l-1.76-4.87a2.04,2.04,0,0,0-1.913-1.343H7.689a2.04,2.04,0,0,0-1.913,1.343l-1.76,4.87A4.28,4.28,0,0,0,3.865,73a.586.586,0,0,0-.514-.355H.715A.586.586,0,0,0,.2,73a2.6,2.6,0,0,0,0,2,.586.586,0,0,0,.514.355H3.358l-.04.11a1.351,1.351,0,0,0-.925,1.282v8.927a.649.649,0,0,0,.649.649H6.311a.649.649,0,0,0,.649-.649V82.513h14.92v3.161a.649.649,0,0,0,.649.649H25.8a.649.649,0,0,0,.649-.649V76.748a1.351,1.351,0,0,0-.925-1.282l-.04-.11h2.643A.586.586,0,0,0,28.64,75,2.6,2.6,0,0,0,28.64,73Zm-20.7-3.289H20.9L22.956,75.4H5.884ZM8.3,79.4H5.565a1.062,1.062,0,1,1,0-2.124H8.3a1.062,1.062,0,1,1,0,2.124Zm14.977,0H20.542a1.062,1.062,0,1,1,0-2.124h2.734a1.062,1.062,0,1,1,0,2.124Z" transform="translate(-0.001 -67.324)"/></svg>