<svg xmlns="http://www.w3.org/2000/svg" width="23" height="22.25" viewBox="0 0 23 22.25"><defs><style>.a{fill:#7b828d;}</style></defs><g transform="translate(7.866 10.473)"><path class="a" d="M181.652,241a.652.652,0,1,0,.652.652A.652.652,0,0,0,181.652,241Z" transform="translate(-181 -241)"/></g><g transform="translate(13.081 0.416)"><path class="a" d="M304.382,12.919l-3.191-3.191A1.956,1.956,0,0,0,301,9.571V13.11h3.539A1.971,1.971,0,0,0,304.382,12.919Z" transform="translate(-301 -9.571)"/></g><g transform="translate(4.24 6.562)"><path class="a" d="M105.052,156.156a2.9,2.9,0,0,0,0-1.185.653.653,0,0,1,.315-.683l.764-.441-.652-1.129-.773.447a.655.655,0,0,1-.749-.068,3.23,3.23,0,0,0-1.018-.59.652.652,0,0,1-.434-.614V151h-1.3v.891a.652.652,0,0,1-.434.614,3.232,3.232,0,0,0-1.018.59.655.655,0,0,1-.749.068l-.773-.447-.652,1.129.764.441a.653.653,0,0,1,.315.683,2.9,2.9,0,0,0,0,1.185.653.653,0,0,1-.315.683l-.764.441.652,1.129.773-.447a.655.655,0,0,1,.749.068,3.23,3.23,0,0,0,1.018.59.652.652,0,0,1,.434.614v.891h1.3v-.891a.652.652,0,0,1,.434-.614,3.232,3.232,0,0,0,1.018-.59.655.655,0,0,1,.749-.068l.773.447.652-1.129-.764-.441A.653.653,0,0,1,105.052,156.156Zm-3.2,1.363a1.956,1.956,0,1,1,1.956-1.956A1.958,1.958,0,0,1,101.854,157.519Z" transform="translate(-97.577 -151)"/></g><g transform="translate(0)"><path class="a" d="M12.429,5.258a.651.651,0,0,1-.652-.652V0H1.956A2,2,0,0,0,0,2V17.644A1.958,1.958,0,0,0,1.956,19.6H9.624l3.747,2.541a.652.652,0,0,0,1.013-.542v-2h.652a2,2,0,0,0,2-1.956V5.258Zm.652,5.867c0,.124-.006.246-.017.366l.948.547a.652.652,0,0,1,.239.891l-1.3,2.259a.652.652,0,0,1-.891.239l-.961-.556a4.519,4.519,0,0,1-.621.36V16.34a.651.651,0,0,1-.652.652H7.214a.651.651,0,0,1-.652-.652V15.231a4.519,4.519,0,0,1-.621-.36l-.961.556a.652.652,0,0,1-.891-.239l-1.3-2.259a.652.652,0,0,1,.239-.891l.948-.547c-.011-.12-.017-.242-.017-.366s.006-.246.017-.366l-.948-.547a.652.652,0,0,1-.239-.891l1.3-2.259a.652.652,0,0,1,.891-.239l.961.556a4.519,4.519,0,0,1,.621-.36V5.91a.651.651,0,0,1,.652-.652H9.821a.651.651,0,0,1,.652.652V7.019a4.519,4.519,0,0,1,.621.36l.961-.556a.652.652,0,0,1,.891.239l1.3,2.259a.652.652,0,0,1-.239.891l-.948.547C13.074,10.879,13.081,11,13.081,11.125Z" transform="translate(0)"/></g><g transform="translate(18.339 1.304)"><path class="a" d="M423.956,30A2,2,0,0,0,422,32v1.956h3.911V32A2,2,0,0,0,423.956,30Z" transform="translate(-422 -30)"/></g><g transform="translate(18.276 6.962)"><g transform="translate(0 0)"><rect class="a" width="5" height="9" transform="translate(-0.276 0.038)"/></g></g><g transform="translate(18.521 16.992)"><path class="a" d="M426.186,391l1.156,3.466a.651.651,0,0,0,1.236,0L429.733,391Z" transform="translate(-426.186 -391)"/></g></svg>