<svg xmlns="http://www.w3.org/2000/svg" width="22.656" height="25" viewBox="0 0 22.656 25"><defs><style>.a{fill:#7b828d;}</style></defs><g transform="translate(-32)"><g transform="translate(32)"><path class="a" d="M464.781,308.687H464V304h.781a.781.781,0,0,1,.781.781v3.125A.781.781,0,0,1,464.781,308.687Z" transform="translate(-442.906 -289.156)"/><path class="a" d="M95.234,464.781H80.391a.391.391,0,1,1,0-.781H95.234a.391.391,0,0,1,0,.781Z" transform="translate(-77.656 -441.344)"/><path class="a" d="M47.625,0H34.734A2.734,2.734,0,0,0,32,2.734v18.3a.2.2,0,0,0,.37.086,2.563,2.563,0,0,1,2.364-1.591H47.625a1.563,1.563,0,0,0,1.563-1.562V1.563A1.562,1.562,0,0,0,47.625,0Zm-9.44,5a3.14,3.14,0,0,1,4.735-.03,3.016,3.016,0,0,1,.558.944,3.032,3.032,0,0,0-1.188-.436h0a1.165,1.165,0,0,0-.6.092h0a3.5,3.5,0,0,1-1.09.291,3.49,3.49,0,0,1-1.087-.29h0a1.173,1.173,0,0,0-.509-.1h0a2.747,2.747,0,0,0-1.343.438A3.01,3.01,0,0,1,38.185,5Zm-.639,2.172a1.786,1.786,0,0,1,1.474-.92h0a.391.391,0,0,1,.17.033h0a4.382,4.382,0,0,0,1.4.357A4.385,4.385,0,0,0,42,6.284l.1-.043.106.012a2.065,2.065,0,0,1,1.368.809l.084.124-.02.148c-.011.077-.022.145-.036.208l-.407,1.881-.006.017a2.761,2.761,0,0,1-5.238,0L37.936,9.4l-.4-1.86c-.01-.046-.017-.091-.024-.135l-.021-.125Zm8.517,8.454a.781.781,0,0,1-.781.781H35.906a.781.781,0,0,1-.781-.781V13.781a1.958,1.958,0,0,1,1.57-1.915l1.67-.334a.557.557,0,0,1,.666.546v.031a1.563,1.563,0,0,0,1.593,1.562,1.583,1.583,0,0,0,1.532-1.594.557.557,0,0,1,.666-.546l1.67.334a1.958,1.958,0,0,1,1.57,1.915Z" transform="translate(-32)"/><path class="a" d="M65.186,16.781a.781.781,0,0,1,.781.781v3.125a.781.781,0,0,1-.781.781V33.188a2.346,2.346,0,0,1-2.344,2.344H49.952A2.328,2.328,0,0,0,48,37.875a2.256,2.256,0,0,0,2.344,2.344H64.4a3.125,3.125,0,0,0,3.125-3.125V17.953A1.953,1.953,0,0,0,65.577,16h-.391Zm.781,10.938V23.031h0a.781.781,0,0,1,.781.781v3.125A.781.781,0,0,1,65.967,27.719Z" transform="translate(-47.217 -15.219)"/></g></g></svg>