<svg xmlns="http://www.w3.org/2000/svg" width="30" height="35.667" viewBox="0 0 30 35.667"><defs><style>.a{fill:#b8b5b5;}.b{fill:#ee405e;}.c{fill:#fff;font-size:11px;font-family:ProximaNova-Regular, Proxima Nova;}</style></defs><g transform="translate(-1487 -18)"><g transform="translate(1487 23.707)"><g transform="translate(0)"><path class="a" d="M168.407,376.406a3.072,3.072,0,0,0,3.073-3.073h-6.146A3.072,3.072,0,0,0,168.407,376.406Z" transform="translate(-156.115 -346.446)"/><path class="a" d="M58.843,20.742V13.059c0-4.724-2.512-8.665-6.914-9.71V2.3a2.3,2.3,0,0,0-4.609,0V3.349c-4.4,1.045-6.914,4.986-6.914,9.71v7.682l-3.073,3.073v1.536H61.916V23.814Z" transform="translate(-37.333)"/></g></g><circle class="b" cx="8.5" cy="8.5" r="8.5" transform="translate(1500 18)"/><text class="c" transform="translate(1508 30)"><tspan x="-3.234" y="0">2</tspan></text></g></svg>