<svg xmlns="http://www.w3.org/2000/svg" width="23.25" height="23.25" viewBox="0 0 23.25 23.25"><defs><style>.a{fill:#b8b5b5;}</style></defs><g transform="translate(-1534 -24)"><path class="a" d="M236.605,363.637a.969.969,0,1,1-.969-.969A.969.969,0,0,1,236.605,363.637Zm0,0" transform="translate(1309.988 -322.199)"/><path class="a" d="M11.625,23.25A11.625,11.625,0,1,1,23.25,11.625,11.638,11.638,0,0,1,11.625,23.25Zm0-21.8A10.172,10.172,0,1,0,21.8,11.625,10.183,10.183,0,0,0,11.625,1.453Zm0,0" transform="translate(1534 24)"/><path class="a" d="M169.449,95.746a.727.727,0,0,1-.727-.727v-.978a2.184,2.184,0,0,1,1.455-2.056,3.006,3.006,0,0,0,1.936-2.536,2.664,2.664,0,1,0-5.328,0,.727.727,0,1,1-1.453,0,4.117,4.117,0,0,1,8.234,0,4.458,4.458,0,0,1-2.905,3.907.727.727,0,0,0-.485.686v.978A.727.727,0,0,1,169.449,95.746Zm0,0" transform="translate(1376.176 -57.457)"/></g></svg>