<svg xmlns="http://www.w3.org/2000/svg" width="170" height="116.016" viewBox="0 0 170 116.016"><defs><style>.a,.c{fill:#fff;}.b{fill:#ee405e;}.c{font-size:17px;font-family:SegoeUI, Segoe UI;}</style></defs><g transform="translate(-199.729 -182.281)"><g transform="translate(241.475 182.281)"><path class="a" d="M278.312,194.307a3.39,3.39,0,0,1,.145.55.333.333,0,0,1-.077.3.633.633,0,0,1-.377.126q-.27.024-.743.024-.493,0-.767-.014a1.918,1.918,0,0,1-.42-.058.386.386,0,0,1-.2-.121.652.652,0,0,1-.1-.2l-.84-2.51h-4.691l-.792,2.442a.792.792,0,0,1-.1.227.418.418,0,0,1-.2.145,1.478,1.478,0,0,1-.4.072q-.256.019-.671.019a6.386,6.386,0,0,1-.695-.029.53.53,0,0,1-.348-.139.378.378,0,0,1-.067-.314,3.164,3.164,0,0,1,.145-.541l3.852-11.08a.956.956,0,0,1,.135-.266.475.475,0,0,1,.246-.154,1.925,1.925,0,0,1,.468-.068q.3-.015.791-.014.569,0,.907.014a2.394,2.394,0,0,1,.526.068.5.5,0,0,1,.27.159.932.932,0,0,1,.14.289Zm-5.733-9.16h-.01l-1.766,5.309h3.542Z" transform="translate(-266.964 -182.541)"/><path class="a" d="M311.125,188.916a8.534,8.534,0,0,1-.449,2.939,4.987,4.987,0,0,1-1.288,1.993,5.169,5.169,0,0,1-2.041,1.134,10,10,0,0,1-2.862.362H301.5a.789.789,0,0,1-.536-.188.772.772,0,0,1-.217-.613V183.655a.774.774,0,0,1,.217-.613.791.791,0,0,1,.536-.188h3.2a8.956,8.956,0,0,1,2.833.391A5.127,5.127,0,0,1,309.5,184.4a4.965,4.965,0,0,1,1.212,1.9A7.575,7.575,0,0,1,311.125,188.916ZM308.5,189a6.286,6.286,0,0,0-.207-1.651,3.514,3.514,0,0,0-.666-1.322,3.087,3.087,0,0,0-1.178-.874,4.778,4.778,0,0,0-1.887-.314h-1.284v8.494H304.6a4.99,4.99,0,0,0,1.757-.27,2.934,2.934,0,0,0,1.192-.816,3.518,3.518,0,0,0,.714-1.356A6.784,6.784,0,0,0,308.5,189Z" transform="translate(-287.654 -182.632)"/><path class="a" d="M347.453,195a.3.3,0,0,1-.053.174.37.37,0,0,1-.193.126,1.849,1.849,0,0,1-.372.077,4.881,4.881,0,0,1-.589.029,4.787,4.787,0,0,1-.579-.029,1.744,1.744,0,0,1-.367-.077.4.4,0,0,1-.193-.126.28.28,0,0,1-.058-.174V184.833h-.019l-3.62,10.154a.469.469,0,0,1-.125.208.615.615,0,0,1-.237.13,1.591,1.591,0,0,1-.381.063q-.232.014-.56.014a5.571,5.571,0,0,1-.56-.024,1.673,1.673,0,0,1-.381-.078.7.7,0,0,1-.237-.13.369.369,0,0,1-.115-.183l-3.494-10.154H335.3V195a.3.3,0,0,1-.053.174.373.373,0,0,1-.2.126,1.955,1.955,0,0,1-.372.077,5.824,5.824,0,0,1-1.163,0,1.846,1.846,0,0,1-.371-.077.369.369,0,0,1-.193-.126A.3.3,0,0,1,332.9,195V183.868a1.021,1.021,0,0,1,.261-.753.94.94,0,0,1,.7-.26h1.66a3.5,3.5,0,0,1,.762.072,1.479,1.479,0,0,1,.55.241,1.366,1.366,0,0,1,.386.444,3.2,3.2,0,0,1,.27.68l2.7,7.442h.038l2.8-7.423a3.892,3.892,0,0,1,.275-.685,1.6,1.6,0,0,1,.347-.454,1.15,1.15,0,0,1,.468-.246,2.443,2.443,0,0,1,.627-.072h1.708a1.341,1.341,0,0,1,.449.067.768.768,0,0,1,.309.2.871.871,0,0,1,.184.319,1.364,1.364,0,0,1,.062.429Z" transform="translate(-307.341 -182.632)"/><path class="a" d="M380.021,194.905a.267.267,0,0,1-.063.174.437.437,0,0,1-.207.126,1.975,1.975,0,0,1-.386.077,6.521,6.521,0,0,1-1.231,0,1.978,1.978,0,0,1-.391-.077.438.438,0,0,1-.208-.126.267.267,0,0,1-.062-.174v-11.8a.269.269,0,0,1,.062-.174.443.443,0,0,1,.212-.125,2.143,2.143,0,0,1,.391-.078,5.243,5.243,0,0,1,.608-.029,5.369,5.369,0,0,1,.618.029,2.032,2.032,0,0,1,.386.078.439.439,0,0,1,.207.125.27.27,0,0,1,.063.174Z" transform="translate(-334.64 -182.541)"/><path class="a" d="M400.336,195.016a.383.383,0,0,1-.039.179.311.311,0,0,1-.184.121,1.816,1.816,0,0,1-.424.067q-.28.019-.763.019-.405,0-.646-.019a1.436,1.436,0,0,1-.381-.072.414.414,0,0,1-.2-.135.745.745,0,0,1-.1-.2l-1.12-2.789q-.2-.473-.4-.84a2.68,2.68,0,0,0-.43-.613,1.566,1.566,0,0,0-.545-.372,1.9,1.9,0,0,0-.714-.126h-.791V195a.269.269,0,0,1-.063.174.436.436,0,0,1-.208.126,1.974,1.974,0,0,1-.386.077,6.517,6.517,0,0,1-1.231,0,1.98,1.98,0,0,1-.391-.077.4.4,0,0,1-.2-.126.28.28,0,0,1-.058-.174V183.655a.773.773,0,0,1,.217-.613.791.791,0,0,1,.536-.188h3.233q.492,0,.811.019t.579.048a5.255,5.255,0,0,1,1.356.367,3.253,3.253,0,0,1,1.023.68,2.834,2.834,0,0,1,.641.994,3.635,3.635,0,0,1,.223,1.317,3.853,3.853,0,0,1-.16,1.144,2.92,2.92,0,0,1-.468.922,3.075,3.075,0,0,1-.762.7,4.121,4.121,0,0,1-1.033.483,2.891,2.891,0,0,1,.526.328,2.763,2.763,0,0,1,.463.468,4.5,4.5,0,0,1,.41.627,8.214,8.214,0,0,1,.376.8l1.052,2.461q.145.367.193.536A1.039,1.039,0,0,1,400.336,195.016Zm-3.273-8.475a1.854,1.854,0,0,0-.28-1.043,1.524,1.524,0,0,0-.917-.6,3.531,3.531,0,0,0-.439-.077,6.131,6.131,0,0,0-.68-.029h-1.139v3.543H394.9a3.109,3.109,0,0,0,.946-.13,1.894,1.894,0,0,0,.676-.367,1.507,1.507,0,0,0,.405-.565A1.912,1.912,0,0,0,397.063,186.541Z" transform="translate(-342.966 -182.632)"/><path class="a" d="M428.249,194.307a3.374,3.374,0,0,1,.145.55.332.332,0,0,1-.077.3.631.631,0,0,1-.376.126q-.271.024-.743.024-.492,0-.768-.014a1.914,1.914,0,0,1-.42-.058.384.384,0,0,1-.2-.121.657.657,0,0,1-.1-.2l-.84-2.51H420.18l-.792,2.442a.782.782,0,0,1-.1.227.419.419,0,0,1-.2.145,1.475,1.475,0,0,1-.4.072q-.256.019-.671.019a6.386,6.386,0,0,1-.7-.029.529.529,0,0,1-.347-.139.377.377,0,0,1-.068-.314,3.168,3.168,0,0,1,.145-.541l3.851-11.08a.96.96,0,0,1,.135-.266.477.477,0,0,1,.246-.154,1.923,1.923,0,0,1,.468-.068q.3-.015.792-.014.569,0,.907.014a2.394,2.394,0,0,1,.526.068.5.5,0,0,1,.27.159.94.94,0,0,1,.14.289Zm-5.734-9.16h-.01l-1.766,5.309h3.542Z" transform="translate(-358.785 -182.541)"/><path class="a" d="M457.549,194.191a4.169,4.169,0,0,1-.024.488,1.47,1.47,0,0,1-.072.328.42.42,0,0,1-.121.188.26.26,0,0,1-.169.058h-5.724a.79.79,0,0,1-.536-.188.772.772,0,0,1-.217-.613V183.11a.267.267,0,0,1,.062-.174.438.438,0,0,1,.208-.125,2.027,2.027,0,0,1,.391-.078,6.62,6.62,0,0,1,1.231,0,2.04,2.04,0,0,1,.386.078.442.442,0,0,1,.208.125.272.272,0,0,1,.063.174v10.048h3.928a.277.277,0,0,1,.169.053.386.386,0,0,1,.121.174,1.3,1.3,0,0,1,.072.319A4.162,4.162,0,0,1,457.549,194.191Z" transform="translate(-379.476 -182.541)"/><path class="a" d="M478.465,191.248a3.856,3.856,0,0,1-.367,1.727,3.579,3.579,0,0,1-.994,1.24,4.332,4.332,0,0,1-1.467.748,6.236,6.236,0,0,1-1.795.251,6.385,6.385,0,0,1-1.2-.106,6.807,6.807,0,0,1-.98-.256,4.234,4.234,0,0,1-.709-.314,2.057,2.057,0,0,1-.411-.29.72.72,0,0,1-.178-.362,3.287,3.287,0,0,1-.053-.68c0-.2.006-.367.019-.5a1.442,1.442,0,0,1,.063-.328.361.361,0,0,1,.116-.178.277.277,0,0,1,.169-.053.808.808,0,0,1,.381.159,6.609,6.609,0,0,0,.632.352,5.686,5.686,0,0,0,.922.352,4.361,4.361,0,0,0,1.24.159,2.852,2.852,0,0,0,.83-.111,1.848,1.848,0,0,0,.622-.314,1.329,1.329,0,0,0,.391-.5,1.6,1.6,0,0,0,.135-.666,1.167,1.167,0,0,0-.232-.729,2.3,2.3,0,0,0-.6-.54,6.274,6.274,0,0,0-.844-.444q-.474-.208-.975-.439a8.921,8.921,0,0,1-.975-.526,3.932,3.932,0,0,1-.844-.7,3.322,3.322,0,0,1-.6-.97,3.5,3.5,0,0,1-.232-1.341,3.551,3.551,0,0,1,.333-1.578,3.243,3.243,0,0,1,.9-1.13,3.823,3.823,0,0,1,1.332-.671,5.819,5.819,0,0,1,1.626-.222,5.906,5.906,0,0,1,.888.068,6.019,6.019,0,0,1,.831.183,4.623,4.623,0,0,1,.685.26,1.61,1.61,0,0,1,.4.241.713.713,0,0,1,.13.164.814.814,0,0,1,.058.179,1.905,1.905,0,0,1,.034.28c.007.113.01.252.01.42,0,.187,0,.344-.015.473a1.723,1.723,0,0,1-.048.319.376.376,0,0,1-.1.183.24.24,0,0,1-.169.058.8.8,0,0,1-.338-.135q-.232-.135-.569-.295a5.529,5.529,0,0,0-.782-.29,3.468,3.468,0,0,0-.975-.13,2.322,2.322,0,0,0-.724.1,1.494,1.494,0,0,0-.516.28,1.1,1.1,0,0,0-.309.429,1.4,1.4,0,0,0-.1.531,1.168,1.168,0,0,0,.227.719,2.165,2.165,0,0,0,.608.54,6.521,6.521,0,0,0,.864.444q.483.208.984.439a9.659,9.659,0,0,1,.984.526,3.984,3.984,0,0,1,.859.7,3.3,3.3,0,0,1,.608.966A3.382,3.382,0,0,1,478.465,191.248Z" transform="translate(-391.492 -182.281)"/></g><g transform="translate(269.154 211.478)"><path class="b" d="M370.582,263.623l.226-.541c.362-.865,1.212-2.756,1.886-3.15a1.346,1.346,0,0,1-.109-.531,35.206,35.206,0,0,1,1.176-4.328l.184-.573.184.573a35.284,35.284,0,0,1,1.176,4.328,1.345,1.345,0,0,1-.109.531c.675.4,1.525,2.285,1.887,3.15l.226.54-.5-.3a5.471,5.471,0,0,0-1.843-.743,1.347,1.347,0,0,0-2.037,0,5.457,5.457,0,0,0-1.842.743Zm3.365-2.247.169.309a.968.968,0,0,0,.847.507,4.176,4.176,0,0,1,1.539.522c-.615-1.364-1.295-2.468-1.539-2.468l-.046.005-.386.017.217-.319a.97.97,0,0,0,.17-.548,28.148,28.148,0,0,0-.973-3.627,28.185,28.185,0,0,0-.973,3.627.961.961,0,0,0,.17.547l.219.319-.43-.019h0c-.248,0-.927,1.1-1.542,2.467a4.16,4.16,0,0,1,1.537-.522.974.974,0,0,0,.85-.508Z" transform="translate(-358.098 -254.501)"/><path class="b" d="M370.056,320.112H338.374l9.412-2.223,12.9.005Zm-28.363-.388h25.042l-6.115-1.447H347.809Z" transform="translate(-338.374 -293.32)"/><path class="b" d="M370.613,292.123H357.366v-.939c-1.845-1.1-3.031-3.591-3.031-6.378,0-3.835,2.261-6.956,5.04-6.956a3.714,3.714,0,0,1,.837.1l.321.074-.22.244a9.263,9.263,0,0,0-2.167,6.166,9.487,9.487,0,0,0,1.887,5.828h.67a8.768,8.768,0,0,1-2.027-5.828c0-4.113,2.423-7.459,5.4-7.459s5.4,3.346,5.4,7.459a8.765,8.765,0,0,1-2.028,5.828h.669a9.474,9.474,0,0,0,1.888-5.828,9.259,9.259,0,0,0-2.167-6.166l-.221-.244.321-.074a3.706,3.706,0,0,1,.837-.1c2.779,0,5.04,3.12,5.04,6.956,0,2.855-1.283,5.436-3.2,6.472Zm-12.859-.388h12.471v-.695l.107-.053c1.853-.932,3.1-3.416,3.1-6.181,0-3.622-2.087-6.568-4.653-6.568a2.925,2.925,0,0,0-.428.033,10.312,10.312,0,0,1,.012,12.313l-.058.071h-1.8l.356-.335a8.144,8.144,0,0,0,2.234-5.881c0-3.9-2.248-7.071-5.013-7.071s-5.014,3.172-5.014,7.071a8.145,8.145,0,0,0,2.234,5.881l.355.335h-1.8l-.059-.071a10.315,10.315,0,0,1,.014-12.312,2.877,2.877,0,0,0-.428-.033c-2.566,0-4.653,2.946-4.653,6.568,0,2.7,1.151,5.093,2.933,6.1l.1.056Z" transform="translate(-348.148 -268.267)"/><path class="b" d="M377.7,281.9a1.034,1.034,0,1,1,1.016-1.236h0a1.035,1.035,0,0,1-.811,1.216A1.05,1.05,0,0,1,377.7,281.9Zm0-1.68a.647.647,0,0,0-.127.013.646.646,0,1,0,.76.507A.648.648,0,0,0,377.7,280.221Z" transform="translate(-361.824 -270.014)"/><path class="b" d="M377.7,289.234A1.034,1.034,0,1,1,378.713,288h0a1.034,1.034,0,0,1-1.014,1.237Zm0-1.679a.646.646,0,1,0,.633.519A.646.646,0,0,0,377.7,287.554Z" transform="translate(-361.824 -274.506)"/><path class="b" d="M377.7,295.984a1.033,1.033,0,1,1,1.014-1.236h0a1.034,1.034,0,0,1-1.014,1.236Zm0-1.679a.646.646,0,1,0,.633.519A.646.646,0,0,0,377.7,294.3Z" transform="translate(-361.824 -278.639)"/><path class="b" d="M377.7,302.484a1.033,1.033,0,1,1,1.014-1.236h0a1.034,1.034,0,0,1-1.014,1.236Zm0-1.679a.646.646,0,1,0,.633.519A.646.646,0,0,0,377.7,300.8Z" transform="translate(-361.824 -282.62)"/><path class="b" d="M377.7,309.4a1.034,1.034,0,0,1-1.011-.832,1.033,1.033,0,1,1,2.027-.4h0a1.035,1.035,0,0,1-.811,1.216A1.052,1.052,0,0,1,377.7,309.4Zm0-1.68a.676.676,0,0,0-.127.012.648.648,0,1,0,.127-.012Z" transform="translate(-361.824 -286.855)"/></g><path class="b" d="M324.339,293.6l.953-2.21a29.634,29.634,0,0,1,7.527-9.829c1.446-1.224,2.676-2.165,3.664-2.921,2.44-1.867,3.45-2.64,3.624-4.319a25.639,25.639,0,0,0,.116-3.866l-24.551-.19-17.861.188a25.533,25.533,0,0,0,.116,3.867c.174,1.679,1.183,2.452,3.623,4.319.988.756,2.218,1.7,3.664,2.921a27.172,27.172,0,0,1,7.294,9.705l.9,2.266-4.271-2.785a79.017,79.017,0,0,0-16.924-7.264,54.975,54.975,0,0,0-6.434-1.274c-1.885-.276-3.023-.444-3.876-1.231-1.588-1.466-.641-4.333-.528-4.655l.2-.571,7.639.706c.051-3.907.716-20.219,8.052-32.589,7.994-13.478,21.209-20.844,21.341-20.916l.361-.2.051.026.05-.026.361.2c.133.073,13.348,7.439,21.341,20.916,7.336,12.37,8,28.682,8.052,32.589l7.638-.706.2.571c.113.322,1.06,3.189-.529,4.655-.854.788-1.991.955-3.876,1.231a54.988,54.988,0,0,0-6.434,1.274,79.019,79.019,0,0,0-16.924,7.264c-2.178,1.421-2.469,1.6-2.5,1.614Zm-8.669-24.885,25.962.2.081.679a24.164,24.164,0,0,1-.064,4.886c-.243,2.344-1.656,3.426-4.223,5.39-.975.746-2.188,1.674-3.6,2.873a28.575,28.575,0,0,0-5.677,6.646,81.634,81.634,0,0,1,17.287-7.406,56.28,56.28,0,0,1,6.6-1.308c1.644-.241,2.549-.374,3.051-.837.524-.484.452-1.617.276-2.428l-8.1.748.017-.867c0-.188.283-18.941-7.837-32.632-7.067-11.915-18.337-18.928-20.419-20.156-2.082,1.227-13.352,8.241-20.42,20.156-8.126,13.7-7.841,32.444-7.837,32.632l.018.867-8.1-.748c-.168.769-.273,1.922.274,2.427.5.463,1.407.6,3.05.837a56.252,56.252,0,0,1,6.6,1.308,82.2,82.2,0,0,1,17.143,7.316,26.641,26.641,0,0,0-5.533-6.555c-1.417-1.2-2.63-2.127-3.605-2.873-2.567-1.964-3.981-3.046-4.223-5.39a24.17,24.17,0,0,1-.063-4.886l.08-.677Zm24-5.682h-41.3l.158-.908a51.743,51.743,0,0,1,7.682-18.4c4.412-6.437,11.58-11.28,12.383-11.811l.428-.283.427.283c.8.531,7.971,5.374,12.383,11.811a51.748,51.748,0,0,1,7.683,18.4Zm-39.428-1.55h37.554a51.437,51.437,0,0,0-7.245-16.877c-3.778-5.511-9.859-9.942-11.532-11.1-1.673,1.161-7.755,5.592-11.532,11.1A51.35,51.35,0,0,0,300.24,261.482Z" transform="translate(-34.078 -24.785)"/><g transform="translate(303.761 184.885)"><path class="b" d="M433.542,232.061a.776.776,0,0,1-.727-.506,46.468,46.468,0,0,0-3.558-7.566c-.449-.757-.942-1.536-1.466-2.316a.776.776,0,0,1,.3-1.127c1.117-.551,5.172-2.584,10.425-5.6,6.355-3.652,15.156-9.347,20.8-14.377a45.311,45.311,0,0,0,9-11.153.776.776,0,0,1,1.438.176c.115.464,2.8,11.429,1.156,17.2-1.222,4.279-5.885,8.674-16.091,15.17a96.761,96.761,0,0,1-21.044,10.069A.772.772,0,0,1,433.542,232.061Zm-3.978-10.517c.361.557.7,1.111,1.027,1.654A47.406,47.406,0,0,1,434,230.316a96.216,96.216,0,0,0,19.987-9.67c9.724-6.188,14.34-10.461,15.433-14.288,1.145-4.008-.056-11.108-.75-14.5a47.478,47.478,0,0,1-8.324,9.861c-5.733,5.109-14.638,10.873-21.06,14.563C434.864,218.83,431.279,220.681,429.564,221.544Z" transform="translate(-427.66 -189)"/><path class="b" d="M444.621,263.2c-.276,0-.61-.145-.905-.673a.759.759,0,0,1-.085-.228,65.323,65.323,0,0,0-2.749-9.909.775.775,0,0,1,.49-1.007,95.007,95.007,0,0,0,20.687-9.9c.775-.493,1.515-.974,2.227-1.444.02-.013.041-.026.062-.037a11.667,11.667,0,0,0,1.746-1.176c.014-.011.029-.023.044-.033,6.917-4.748,10.418-8.325,11.353-11.6a13.212,13.212,0,0,0,.429-2.773.778.778,0,0,1,.12-.37c.267-.417.416-.659.418-.662a.775.775,0,0,1,1.391.15,47.879,47.879,0,0,1,2.392,13.284c.111,5.8-3.934,11.3-12.366,16.814-6.742,4.408-24.28,9.323-25.023,9.53A.851.851,0,0,1,444.621,263.2ZM442.609,252.6a67.275,67.275,0,0,1,2.442,8.892c3.222-.927,18.128-5.335,23.976-9.159,7.95-5.2,11.765-10.264,11.665-15.487a44.847,44.847,0,0,0-1.5-10.083q-.09.448-.2.85c-1.053,3.688-4.626,7.408-11.944,12.434a13.261,13.261,0,0,1-1.928,1.3c-.71.469-1.447.946-2.219,1.438A97.844,97.844,0,0,1,442.609,252.6Z" transform="translate(-435.728 -209.833)"/><path class="b" d="M449.978,309.107a.775.775,0,0,1-.772-.7c-.264-2.757-.661-5.483-1.181-8.1a.775.775,0,0,1,1.252-.75c2.83-.81,18.187-5.312,24.145-9.207,1.029-.672,2-1.35,2.886-2.015l4.435-3.108a.776.776,0,0,1,1.216.56l.032.3c.193,1.8.78,7.261-1.41,10.869-2.715,4.471-11.026,7.435-17.521,9.133-6.741,1.763-11.292,2.691-12.935,3.008A.754.754,0,0,1,449.978,309.107Zm-.235-8.075c.384,2.079.692,4.215.921,6.374,2.077-.418,6.228-1.31,12-2.822,8.916-2.331,14.652-5.25,16.588-8.438,1.62-2.668,1.483-6.7,1.293-8.9l-3.331,2.334c-.893.67-1.892,1.367-2.947,2.057C468.074,295.694,452.758,300.173,449.743,301.032Z" transform="translate(-440.123 -247.841)"/><path class="b" d="M452.218,343.189a.775.775,0,0,1-.775-.78c0-.7-.008-3.269-.353-6.875a.774.774,0,0,1,.625-.835c1.629-.314,6.14-1.235,12.837-2.986a68.505,68.505,0,0,0,7.214-2.28.685.685,0,0,1,.3-.052c1.219.03,1.921.114,1.951.118a.774.774,0,0,1,.676.677c.029.234.2,2.369-2.388,5.259a21.193,21.193,0,0,1-8.3,5.754c-4.2,1.759-9.64,1.985-11.783,2Zm.479-7.1c.218,2.493.278,4.441.292,5.538a32.013,32.013,0,0,0,10.418-1.866,19.521,19.521,0,0,0,7.739-5.357,7.569,7.569,0,0,0,1.942-3.424c-.247-.016-.553-.031-.912-.042a70.618,70.618,0,0,1-7.234,2.278C458.986,334.771,454.739,335.677,452.7,336.085Z" transform="translate(-442.007 -274.969)"/></g><g transform="translate(219.458 184.885)"><path class="b" d="M255.107,232.061a.768.768,0,0,1-.238-.038,96.706,96.706,0,0,1-21.044-10.069c-10.207-6.5-14.869-10.89-16.092-15.17-1.648-5.767,1.041-16.732,1.156-17.2a.775.775,0,0,1,1.438-.176,45.443,45.443,0,0,0,9,11.154c5.644,5.03,14.445,10.725,20.8,14.377,5.254,3.019,9.307,5.052,10.424,5.6a.776.776,0,0,1,.3,1.127c-.521.776-1.014,1.555-1.466,2.316a46.4,46.4,0,0,0-3.557,7.565A.776.776,0,0,1,255.107,232.061Zm-35.132-40.2c-.694,3.388-1.9,10.488-.75,14.5,1.093,3.826,5.709,8.1,15.433,14.288a96.175,96.175,0,0,0,19.987,9.67,47.32,47.32,0,0,1,3.414-7.119c.323-.545.667-1.1,1.026-1.654-1.715-.863-5.3-2.713-9.725-5.257-6.423-3.691-15.328-9.455-21.06-14.563A47.469,47.469,0,0,1,219.975,191.863Z" transform="translate(-214.472 -189.001)"/><path class="b" d="M247.783,263.2a.858.858,0,0,1-.238-.035c-.737-.205-18.275-5.12-25.016-9.528-8.433-5.514-12.478-11.014-12.366-16.814a47.855,47.855,0,0,1,2.392-13.284.775.775,0,0,1,1.391-.151s.151.245.418.663a.773.773,0,0,1,.12.369,13.237,13.237,0,0,0,.429,2.773c.935,3.273,4.436,6.85,11.353,11.6.015.01.03.021.045.033A11.656,11.656,0,0,0,228.056,240c.022.011.042.024.063.037.712.47,1.452.95,2.228,1.444a94.948,94.948,0,0,0,20.687,9.9.776.776,0,0,1,.49,1.007,65.28,65.28,0,0,0-2.748,9.909.778.778,0,0,1-.085.229C248.393,263.05,248.061,263.2,247.783,263.2Zm-34.566-36.43a44.853,44.853,0,0,0-1.5,10.084c-.1,5.223,3.715,10.288,11.665,15.487,5.85,3.825,20.765,8.235,23.977,9.159A67.325,67.325,0,0,1,249.8,252.6a97.788,97.788,0,0,1-20.282-9.817c-.772-.492-1.51-.97-2.219-1.438a13.177,13.177,0,0,1-1.929-1.3c-7.317-5.026-10.89-8.745-11.944-12.434Q213.308,227.215,213.217,226.766Z" transform="translate(-210.16 -209.832)"/><path class="b" d="M253.821,309.107a.753.753,0,0,1-.147-.014c-1.644-.317-6.2-1.245-12.936-3.008-6.495-1.7-14.806-4.662-17.521-9.133-2.19-3.607-1.6-9.072-1.41-10.867l.031-.3a.776.776,0,0,1,1.217-.56l4.415,3.093q1.358,1.017,2.906,2.029c5.961,3.9,21.328,8.4,24.145,9.207a.775.775,0,0,1,1.252.75c-.52,2.623-.917,5.348-1.181,8.1a.774.774,0,0,1-.771.7ZM223.25,287.252c-.19,2.193-.327,6.228,1.293,8.9,1.936,3.188,7.672,6.106,16.588,8.438,5.776,1.511,9.927,2.4,12,2.822.228-2.158.536-4.294.921-6.374-3-.854-18.328-5.336-24.527-9.39-1.058-.692-2.056-1.389-2.967-2.071Z" transform="translate(-217.16 -247.841)"/><path class="b" d="M268.3,343.189h-.006c-2.143-.016-7.582-.242-11.783-2a21.188,21.188,0,0,1-8.3-5.753c-2.588-2.89-2.417-5.025-2.389-5.259a.775.775,0,0,1,.676-.677c.029,0,.732-.088,1.951-.118a.706.706,0,0,1,.3.052,68.555,68.555,0,0,0,7.214,2.28c6.7,1.752,11.208,2.672,12.837,2.986a.774.774,0,0,1,.624.835c-.346,3.614-.357,6.176-.352,6.875a.775.775,0,0,1-.775.781Zm-20.866-12.213a7.6,7.6,0,0,0,1.936,3.424,19.525,19.525,0,0,0,7.74,5.357,32.011,32.011,0,0,0,10.418,1.866c.014-1.1.074-3.041.292-5.538-2.041-.408-6.289-1.314-12.247-2.873a70.615,70.615,0,0,1-7.234-2.278C247.984,330.946,247.68,330.961,247.434,330.977Z" transform="translate(-231.994 -274.969)"/></g><text class="c" transform="translate(199.729 294.297)"><tspan x="0" y="0">Travel&amp; Transportation</tspan></text></g></svg>