<svg xmlns="http://www.w3.org/2000/svg" width="22.466" height="21.572" viewBox="0 0 22.466 21.572"><defs><style>.a{fill:#7b828d;}</style></defs><g transform="translate(0 -9.973)"><path class="a" d="M22.466,299.375l-2.653-.385-1.186-2.4h0l-1.186,2.4-2.507.364.925-.9-3.2-.464-1.429-2.9-1.429,2.9-3.2.464.925.9-2.507-.364-1.186-2.4h0l-1.186,2.4L0,299.375l1.92,1.871-.453,2.642,2.372-1.247h0l2.373,1.248-.453-2.642,1.858-1.811,1.3,1.271-.546,3.182,2.858-1.5,2.858,1.5-.546-3.182,1.3-1.271,1.858,1.811-.453,2.642,2.373-1.248h0L21,303.889l-.453-2.642,1.92-1.871Z" transform="translate(0 -272.344)"/><path class="a" d="M15.606,102.889v-.672a5.79,5.79,0,0,1,.861-3.044,3.724,3.724,0,0,0-.727-.389,2.016,2.016,0,1,0-2.732,0,3.7,3.7,0,0,0-2.33,3.434v.672h4.929Z" transform="translate(-10.199 -81.49)"/><path class="a" d="M362.333,102.216v.672h4.929v-.672a3.7,3.7,0,0,0-2.33-3.434,2.016,2.016,0,1,0-2.732,0,3.726,3.726,0,0,0-.727.389,5.79,5.79,0,0,1,.861,3.044Z" transform="translate(-345.275 -81.489)"/><path class="a" d="M159.638,20.727h0a4.482,4.482,0,0,0-2.9-4.193,3.473,3.473,0,1,0-3.168,0,4.482,4.482,0,0,0-2.9,4.193V21.4h8.961Z" transform="translate(-143.925)"/></g></svg>